# xmcd
#
# Track frame offsets:
# 183
# 11358
# 29358
# 41245
# 53470
# 66183
# 79045
# 90083
# 99183
# 112270
# 125808
# 156633
# 168708
# 178945
#
# Disc length: 2615 seconds
#
# Revision: 1
# Processed by: cddbd v1.5.2PL0 Copyright (c) Steve Scherf et al.
# Submitted via: CedeCatalogueitor 2.6.0.6 http://personales.ya.com/cdcatalogueitor
#
DISCID=b70a350e
DTITLE=Varis - Flash Back. Temps De Cançó. Volum 1
DYEAR=1994
DGENRE=Música Catalana
TTITLE0=L'Estaca
TTITLE1=L'Home Del Carrer
TTITLE2=Remena Nena
TTITLE3=La, La, La
TTITLE4=Va Com Va
TTITLE5=Tots Som Pops
TTITLE6=Que Tal, Mary Lou?
TTITLE7=Na Catalina Da Plaça
TTITLE8=Escolta'm
TTITLE9=Quan M'enamora
TTITLE10=Qualsevol Nit Pot Sortir El Sol
TTITLE11=Amb Tu
TTITLE12=Es Molt Tard
TTITLE13=Ja Sóc Aquí
EXTD=
EXTT0=
EXTT1=
EXTT2=
EXTT3=
EXTT4=
EXTT5=
EXTT6=
EXTT7=
EXTT8=
EXTT9=
EXTT10=
EXTT11=
EXTT12=
EXTT13=
PLAYORDER=
